# xmcd CD database file
#
# Track frame offsets:
#	150
#	21549
#	40277
#	63572
#	79385
#	96635
#	119089
#	133530
#	148430
#	164911
#	183634
#	202518
#	224902
#
# Disc length: 3220 seconds
#
# Revision: 1
# Processed by: cddbd v1.5.1PL0 Copyright (c) Steve Scherf et al.
# Submitted via: CDex 1.51
#
DISCID=e00c920d
DTITLE=スガシカオ - Sugarless
DYEAR=2001
DGENRE=J-Pop
TTITLE0=マーメイド
TTITLE1=ユビキリ
TTITLE2=夜空ノムコウ
TTITLE3=ぬれた靴
TTITLE4=夏祭り
TTITLE5=ココニイルコト
TTITLE6=バクダン・ジュース（original）
TTITLE7=ひとりぼっち
TTITLE8=うきぶくろをもって
TTITLE9=これからむかえにいくよ
TTITLE10=8月のセレナーデ
TTITLE11=Room201
TTITLE12=坂の途中
EXTD=YEAR: 2001
EXTT0=
EXTT1=
EXTT2=
EXTT3=
EXTT4=
EXTT5=
EXTT6=
EXTT7=
EXTT8=
EXTT9=
EXTT10=
EXTT11=
EXTT12=
PLAYORDER=
